<svg xmlns="http://www.w3.org/2000/svg" width="347.044" height="35.573" viewBox="0 0 1239 127">
  <path style="fill: #fff" d="M49.027,124.8V110.911l-12.378-2.38V79.173h21.82a46.088,46.088,0,0,0,20.868-4.681A35.2,35.2,0,0,0,93.46,61.876a33.228,33.228,0,0,0,5.078-18.17q0-10.79-5.118-18.487A32.6,32.6,0,0,0,78.781,13.4Q69.26,9.271,55.93,9.27H1.181V23.234l12.3,2.38v82.916l-12.3,2.38V124.8H49.027Zm54.59,0V110.911l-9.839-2.3L76.957,69.731,56.089,74.889,75.528,124.8h28.089ZM36.649,27.122H55.93q9.679,0,14.6,4.8t4.919,12.814q0,8.093-4.959,12.338T55.533,61.32H36.649v-34.2ZM173,123.646a44.578,44.578,0,0,0,13.37-7.1l-6.268-14.282a45.558,45.558,0,0,1-10.751,4.8,41.741,41.741,0,0,1-11.863,1.627,20.288,20.288,0,0,1-10.394-2.5,17.152,17.152,0,0,1-6.625-6.9,25.76,25.76,0,0,1-2.817-10.037l0.159-.476h50.463V76.158q0-12.3-4.126-20.947a29.673,29.673,0,0,0-12.06-13.251q-7.935-4.6-19.6-4.6-11.825-.078-20.511,5.594A37.641,37.641,0,0,0,118.534,58.5a51.563,51.563,0,0,0-4.761,22.653v3.174a45.771,45.771,0,0,0,5.038,21.74,37.273,37.273,0,0,0,14.243,14.957,41.494,41.494,0,0,0,21.5,5.435A55.764,55.764,0,0,0,173,123.646ZM137.735,73.064a34.884,34.884,0,0,1,2.42-9.522,15.956,15.956,0,0,1,4.959-6.625,12.449,12.449,0,0,1,7.776-2.42,13.845,13.845,0,0,1,7.9,2.063,11.7,11.7,0,0,1,4.444,5.832,26.136,26.136,0,0,1,1.388,9.006V73.46H137.973Zm103.189,52.726a65.794,65.794,0,0,0,7.736-1.706l-1.983-16.742q-1.588.318-3.809,0.6a33.237,33.237,0,0,1-4.126.278,7.687,7.687,0,0,1-5.752-2.143q-2.1-2.142-2.1-7.141V55.211h15.79V38.945h-15.79V17.918H207.8V38.945H195.975V55.211H207.8v43.8q0,14.282,6.467,20.867t18.448,6.586A51.505,51.505,0,0,0,240.924,125.789Zm59.391-.992V110.911l-10-2.38V62.987a16.234,16.234,0,0,1,6.308-5.673,18.646,18.646,0,0,1,8.53-1.944q6.743,0,10.235,3.888t3.491,13.171v36.1l-10,2.38V124.8h44.275V110.911l-11.109-2.38V72.587q0-18.011-7.577-26.62t-20.511-8.609a27.79,27.79,0,0,0-13.608,3.293,28.859,28.859,0,0,0-10.037,9.244V1.018H254.849V14.983l12.378,2.38v91.168l-11.187,2.38V124.8h44.275Zm105.053,0V110.911l-11.108-2.38V38.945H358.713V52.91l12.378,2.38v53.241l-11.188,2.38V124.8h45.465ZM394.26,20.775V1.018H370.3V20.775H394.26ZM455.832,124.8V110.911l-9.363-2.38V63.463a17.512,17.512,0,0,1,6.149-5.991,17.263,17.263,0,0,1,8.689-2.1q6.743,0,10.156,3.61t3.412,12.259v37.292l-9.918,2.38V124.8h44.275V110.911l-11.109-2.38V71.159q0-17.455-7.22-25.629t-20-8.173a28.239,28.239,0,0,0-14.4,3.65,31.277,31.277,0,0,0-10.592,10.236l-1.032-12.3H411V52.91l12.3,2.38v53.241l-11.108,2.38V124.8h43.64Zm103.943,0V110.911l-10-2.38V1.018H514.31V14.983l12.378,2.38v91.168l-11.188,2.38V124.8h44.275Zm53.32,0V110.911l-10.632-2.459-28.168-36.9L559.537,86.711l16.98,23.09,0.158,0.317-6.506,1.507V124.8H613.1Zm-14.679-69.11,11.109-2.777V38.945H564.853V52.751l8.807,1.27-0.158.238L536.209,88.377l11.109,12.934Zm70.062,69.11V110.911l-12.378-2.38V76.793h47.132v31.738l-12.378,2.38V124.8H738.7V110.911l-12.378-2.38V25.615l12.378-2.38V9.27H690.854V23.234l12.378,2.38V58.94H656.1V25.615l12.378-2.38V9.27H620.633V23.234l12.3,2.38v82.916l-12.3,2.38V124.8h47.845Zm142.267-3.888a36.552,36.552,0,0,0,13.886-15.433,51.047,51.047,0,0,0,4.84-22.732V81.077a50.8,50.8,0,0,0-4.84-22.693,36.875,36.875,0,0,0-13.886-15.433q-9.045-5.594-21.82-5.594-12.616,0-21.7,5.594A36.723,36.723,0,0,0,753.3,58.424a50.847,50.847,0,0,0-4.84,22.653v1.666a51.033,51.033,0,0,0,4.84,22.732,36.375,36.375,0,0,0,13.965,15.433q9.123,5.554,21.82,5.554Q801.7,126.463,810.745,120.909Zm-31.659-15.433a18.318,18.318,0,0,1-5.673-9.085,47.041,47.041,0,0,1-1.785-13.647V81.077a46.021,46.021,0,0,1,1.785-13.449,18.812,18.812,0,0,1,5.673-9.125,16.524,16.524,0,0,1,19.8,0,19.215,19.215,0,0,1,5.673,9.125,45.1,45.1,0,0,1,1.825,13.449v1.666a45.7,45.7,0,0,1-1.825,13.608,19.1,19.1,0,0,1-5.633,9.085,14.619,14.619,0,0,1-9.839,3.253A15.168,15.168,0,0,1,779.086,105.476ZM886.917,124.8V110.911l-11.108-2.38V66.478A18.16,18.16,0,0,1,881.244,61a13.6,13.6,0,0,1,7.974-1.666l11.5,0.635,2.46-21.344a32.377,32.377,0,0,0-4.364-.912,31.678,31.678,0,0,0-4.523-.357,17.911,17.911,0,0,0-11.188,3.571,26.931,26.931,0,0,0-7.855,10.553l-0.159-1.9-0.872-10.632H840.341V52.91l12.3,2.38v53.241l-11.109,2.38V124.8h45.386Zm67.92,0V110.911l-11.109-2.38V38.945H908.182V52.91l12.378,2.38v53.241l-11.188,2.38V124.8h45.465ZM943.728,20.775V1.018H919.766V20.775h23.962ZM1038.78,124.8V92.424h-16.26l-3.41,15.79H994.827l42.133-54.431V38.945H966.421V69.81H983.4l2.619-14.679h23.17l-44.673,56.018V124.8h74.263Zm72.92-3.888a36.58,36.58,0,0,0,13.89-15.433,51.128,51.128,0,0,0,4.84-22.732V81.077a50.876,50.876,0,0,0-4.84-22.693,36.9,36.9,0,0,0-13.89-15.433q-9.045-5.594-21.82-5.594-12.615,0-21.7,5.594a36.653,36.653,0,0,0-13.92,15.472,50.807,50.807,0,0,0-4.84,22.653v1.666a50.992,50.992,0,0,0,4.84,22.732,36.351,36.351,0,0,0,13.96,15.433q9.12,5.554,21.82,5.554Q1102.655,126.463,1111.7,120.909Zm-31.66-15.433a18.328,18.328,0,0,1-5.67-9.085,47.05,47.05,0,0,1-1.78-13.647V81.077a46.03,46.03,0,0,1,1.78-13.449,18.823,18.823,0,0,1,5.67-9.125,16.528,16.528,0,0,1,19.8,0,19.12,19.12,0,0,1,5.67,9.125,44.964,44.964,0,0,1,1.83,13.449v1.666a45.563,45.563,0,0,1-1.83,13.608,19.037,19.037,0,0,1-5.63,9.085,14.622,14.622,0,0,1-9.84,3.253A15.2,15.2,0,0,1,1080.04,105.476ZM1183.51,124.8V110.911l-9.36-2.38V63.463a17.515,17.515,0,0,1,6.15-5.991,17.249,17.249,0,0,1,8.69-2.1q6.735,0,10.15,3.61t3.41,12.259v37.292l-9.91,2.38V124.8h44.27V110.911l-11.11-2.38V71.159q0-17.455-7.22-25.629t-19.99-8.173a28.205,28.205,0,0,0-14.4,3.65,31.29,31.29,0,0,0-10.6,10.236l-1.03-12.3h-33.88V52.91l12.3,2.38v53.241l-11.11,2.38V124.8h43.64Z"/>
</svg>
