<svg xmlns="http://www.w3.org/2000/svg" width="359.088" height="35.573" viewBox="0 0 1282 127">
  <defs>
    <style>
      .logo-svg {
        fill: #fff;
      }
    </style>
  </defs>
  <path class="logo-svg" d="M49.754,124.8V110.911l-12.378-2.38V79.173H59.2a46.087,46.087,0,0,0,20.868-4.681A35.2,35.2,0,0,0,94.187,61.876a33.228,33.228,0,0,0,5.078-18.17q0-10.79-5.118-18.487A32.6,32.6,0,0,0,79.509,13.4Q69.987,9.271,56.657,9.27H1.908V23.234l12.3,2.38v82.916l-12.3,2.38V124.8H49.754Zm54.59,0V110.911l-9.839-2.3L77.684,69.731,56.816,74.889,76.255,124.8h28.089ZM37.376,27.122H56.657q9.68,0,14.6,4.8t4.919,12.814q0,8.093-4.959,12.338T56.26,61.32H37.376v-34.2Zm136.355,96.524a44.578,44.578,0,0,0,13.37-7.1l-6.268-14.282a45.54,45.54,0,0,1-10.751,4.8,41.741,41.741,0,0,1-11.863,1.627,20.291,20.291,0,0,1-10.394-2.5,17.152,17.152,0,0,1-6.625-6.9,25.76,25.76,0,0,1-2.817-10.037l0.159-.476h50.463V76.158q0-12.3-4.125-20.947A29.68,29.68,0,0,0,172.819,41.96q-7.935-4.6-19.6-4.6Q141.4,37.28,132.71,42.952A37.655,37.655,0,0,0,119.261,58.5,51.563,51.563,0,0,0,114.5,81.157v3.174a45.771,45.771,0,0,0,5.038,21.74,37.273,37.273,0,0,0,14.243,14.957,41.494,41.494,0,0,0,21.5,5.435A55.764,55.764,0,0,0,173.731,123.646ZM138.462,73.064a34.884,34.884,0,0,1,2.42-9.522,15.965,15.965,0,0,1,4.959-6.625,12.451,12.451,0,0,1,7.776-2.42,13.845,13.845,0,0,1,7.9,2.063,11.7,11.7,0,0,1,4.444,5.832,26.136,26.136,0,0,1,1.388,9.006V73.46H138.7Zm103.189,52.726a65.857,65.857,0,0,0,7.737-1.706L247.4,107.341q-1.589.318-3.809,0.6a33.237,33.237,0,0,1-4.126.278,7.687,7.687,0,0,1-5.752-2.143q-2.1-2.142-2.1-7.141V55.211H247.4V38.945h-15.79V17.918H208.525V38.945H196.7V55.211h11.823v43.8q0,14.282,6.466,20.867t18.448,6.586A51.505,51.505,0,0,0,241.651,125.789Zm59.391-.992V110.911l-10-2.38V62.987a16.234,16.234,0,0,1,6.308-5.673,18.646,18.646,0,0,1,8.53-1.944q6.743,0,10.235,3.888t3.491,13.171v36.1l-10,2.38V124.8h44.275V110.911l-11.109-2.38V72.587q0-18.011-7.577-26.62t-20.511-8.609a27.79,27.79,0,0,0-13.608,3.293,28.859,28.859,0,0,0-10.037,9.244V1.018H255.577V14.983l12.377,2.38v91.168l-11.187,2.38V124.8h44.275Zm105.053,0V110.911l-11.108-2.38V38.945H359.44V52.91l12.378,2.38v53.241l-11.188,2.38V124.8H406.1ZM394.987,20.775V1.018H371.024V20.775h23.963ZM456.559,124.8V110.911l-9.363-2.38V63.463a17.507,17.507,0,0,1,6.15-5.991,17.257,17.257,0,0,1,8.688-2.1q6.743,0,10.156,3.61T475.6,71.239v37.292l-9.918,2.38V124.8h44.275V110.911l-11.109-2.38V71.159q0-17.455-7.22-25.629t-20-8.173a28.239,28.239,0,0,0-14.4,3.65,31.277,31.277,0,0,0-10.592,10.236l-1.032-12.3h-33.88V52.91l12.3,2.38v53.241l-11.108,2.38V124.8h43.64Zm103.943,0V110.911l-10-2.38V1.018H515.037V14.983l12.378,2.38v91.168l-11.188,2.38V124.8H560.5Zm53.32,0V110.911l-10.632-2.459-28.168-36.9L560.264,86.711l16.98,23.09,0.158,0.317-6.506,1.507V124.8h42.926Zm-14.679-69.11,11.109-2.777V38.945H565.58V52.751l8.807,1.27-0.158.238L536.936,88.377l11.109,12.934Zm73.236,69.11q15.472,0,27.216-7.3a49.851,49.851,0,0,0,18.289-20.114q6.546-12.813,6.546-29.239V66q0-16.582-6.625-29.4A49.96,49.96,0,0,0,699.357,16.53q-11.824-7.26-27.295-7.26h-50.7V23.234l12.457,2.7v82.361l-12.457,2.618V124.8h51.019ZM656.986,27.043h14.2q9.6,0,16.266,4.959a31.113,31.113,0,0,1,10.2,13.727,53.771,53.771,0,0,1,3.531,20.193v2.222a53.615,53.615,0,0,1-3.531,20.074,31.624,31.624,0,0,1-10.2,13.845q-6.665,5.04-16.266,5.039h-14.2V27.043ZM791.318,124.8q20.075,0,31.025-8.53t10.949-25.113a30.118,30.118,0,0,0-2.3-11.862,23.826,23.826,0,0,0-6.943-9.244A26.936,26.936,0,0,0,812.5,64.732a25.634,25.634,0,0,0,12.338-9.482,25.065,25.065,0,0,0,4.245-14.322q0-15.789-11.426-23.724T785.844,9.27H734.507V23.234l12.3,2.38v82.916l-12.3,2.38V124.8h56.811ZM769.974,73.7h23.09a20.831,20.831,0,0,1,9.72,1.984,12.441,12.441,0,0,1,5.594,5.872,22.538,22.538,0,0,1,1.825,9.6q0,7.855-4.84,11.862t-14.045,4.007H769.974V73.7Zm0-46.576h15.87q10,0,15.036,3.809t5.038,11.823q0,7.3-5,11.108T786.637,57.67H769.974V27.122Zm148.535,96.286a64.582,64.582,0,0,0,16.822-7.5V88.3H918.113l-2.381,16.266a50.233,50.233,0,0,1-9.164,2.975,44.916,44.916,0,0,1-10.037,1.151,30.4,30.4,0,0,1-17.3-4.88,31.535,31.535,0,0,1-11.267-13.767Q864,81.158,864,69.017V64.97q0-12.14,3.769-20.987A30.65,30.65,0,0,1,878.6,30.3a29.164,29.164,0,0,1,16.9-4.84,40.307,40.307,0,0,1,7.816.714,32.571,32.571,0,0,1,6.7,2.063,30.227,30.227,0,0,1,5.712,3.253l2.381,17.535h17.218V21.092a54.108,54.108,0,0,0-18.369-10.156A70.961,70.961,0,0,0,894.944,7.6q-16.743,0-28.882,7.379a49.28,49.28,0,0,0-18.686,20.352q-6.546,12.973-6.546,29.794v3.888q0,17.615,6.784,30.508a48,48,0,0,0,19.241,19.916q12.456,7.022,29.279,7.022A76.951,76.951,0,0,0,918.509,123.408Zm72.284,1.389V110.911l-11.187-2.38V1.018H944.059V14.983l12.378,2.38v91.168l-11.188,2.38V124.8h45.544Zm68.557-3.888a36.493,36.493,0,0,0,13.88-15.433,50.992,50.992,0,0,0,4.84-22.732V81.077a50.741,50.741,0,0,0-4.84-22.693,36.816,36.816,0,0,0-13.88-15.433q-9.045-5.594-21.82-5.594-12.615,0-21.7,5.594a36.741,36.741,0,0,0-13.93,15.472,50.874,50.874,0,0,0-4.838,22.653v1.666a51.06,51.06,0,0,0,4.838,22.732,36.373,36.373,0,0,0,13.97,15.433q9.12,5.554,21.82,5.554Q1050.3,126.463,1059.35,120.909Zm-31.66-15.433a18.328,18.328,0,0,1-5.67-9.085,47.031,47.031,0,0,1-1.79-13.647V81.077a46.013,46.013,0,0,1,1.79-13.449,18.823,18.823,0,0,1,5.67-9.125,16.528,16.528,0,0,1,19.8,0,19.272,19.272,0,0,1,5.67,9.125,44.979,44.979,0,0,1,1.82,13.449v1.666a45.58,45.58,0,0,1-1.82,13.608,19.189,19.189,0,0,1-5.63,9.085,14.622,14.622,0,0,1-9.84,3.253A15.16,15.16,0,0,1,1027.69,105.476Zm110.92,17.734a27.9,27.9,0,0,0,10.16-9.283l1.59,10.87h30.62V110.911l-10.31-2.38V38.945h-33.4V52.91l10.23,2.38v45.386a17.179,17.179,0,0,1-6.51,5.752,19.77,19.77,0,0,1-9.12,2.024q-6.51,0-9.72-4.007t-3.21-13.211V38.945h-32.61V52.91l9.44,2.38V91.075q0,18.171,7.73,26.779t21.31,8.609A28.892,28.892,0,0,0,1138.61,123.21Zm97.16,0.159a28.1,28.1,0,0,0,9.64-9.046l1.75,10.474h31.18V110.911l-11.11-2.38V1.018h-35.54V14.983l12.37,2.38V48.149a27.767,27.767,0,0,0-9.2-7.974,26.058,26.058,0,0,0-12.38-2.817,27.574,27.574,0,0,0-17.45,5.673q-7.3,5.674-11.23,15.829t-3.93,23.724v1.666a58.214,58.214,0,0,0,3.89,22.177,33.048,33.048,0,0,0,11.23,14.759,29.289,29.289,0,0,0,17.57,5.276A26.866,26.866,0,0,0,1235.77,123.369Zm-18.92-21.384q-3.81-6.466-3.81-17.734V82.585a52.931,52.931,0,0,1,1.71-14.2,20.1,20.1,0,0,1,5.39-9.561,13.322,13.322,0,0,1,9.48-3.452,15.613,15.613,0,0,1,8.41,2.261,17.665,17.665,0,0,1,6.03,6.387v36.42a17.271,17.271,0,0,1-6.1,5.951,16.989,16.989,0,0,1-8.49,2.063Q1220.65,108.452,1216.85,101.985Z"/>
</svg>
