<svg xmlns="http://www.w3.org/2000/svg" width="369.732" height="35.573" viewBox="0 0 1320 127">
  <defs>
    <style>
      .logo-svg {
        fill: #fff;
      }
    </style>
  </defs>
  <path class="logo-svg" d="M48.838,124.8V110.911l-12.378-2.38V79.173H58.28a46.087,46.087,0,0,0,20.868-4.681A35.2,35.2,0,0,0,93.272,61.876a33.229,33.229,0,0,0,5.078-18.17q0-10.79-5.118-18.487A32.6,32.6,0,0,0,78.593,13.4Q69.071,9.271,55.741,9.27H0.993V23.234l12.3,2.38v82.916l-12.3,2.38V124.8H48.838Zm54.59,0V110.911l-9.839-2.3L76.768,69.731,55.9,74.889,75.34,124.8h28.088ZM36.46,27.122H55.741q9.68,0,14.6,4.8T75.26,44.737q0,8.093-4.959,12.338T55.344,61.32H36.46v-34.2Zm136.356,96.524a44.584,44.584,0,0,0,13.369-7.1l-6.268-14.282a45.54,45.54,0,0,1-10.751,4.8A41.734,41.734,0,0,1,157.3,108.69a20.3,20.3,0,0,1-10.4-2.5,17.158,17.158,0,0,1-6.625-6.9,25.777,25.777,0,0,1-2.817-10.037l0.159-.476H188.09V76.158q0-12.3-4.126-20.947A29.675,29.675,0,0,0,171.9,41.96q-7.935-4.6-19.6-4.6-11.824-.078-20.511,5.594A37.655,37.655,0,0,0,118.345,58.5a51.563,51.563,0,0,0-4.761,22.653v3.174a45.759,45.759,0,0,0,5.039,21.74,37.264,37.264,0,0,0,14.242,14.957,41.494,41.494,0,0,0,21.5,5.435A55.775,55.775,0,0,0,172.816,123.646ZM137.547,73.064a34.812,34.812,0,0,1,2.42-9.522,15.948,15.948,0,0,1,4.959-6.625A12.447,12.447,0,0,1,152.7,54.5,13.842,13.842,0,0,1,160.6,56.56a11.694,11.694,0,0,1,4.444,5.832,26.112,26.112,0,0,1,1.388,9.006V73.46H137.785Zm103.189,52.726a65.838,65.838,0,0,0,7.736-1.706l-1.984-16.742q-1.589.318-3.808,0.6a33.262,33.262,0,0,1-4.126.278,7.688,7.688,0,0,1-5.753-2.143q-2.1-2.142-2.1-7.141V55.211h15.79V38.945H230.7V17.918H207.609V38.945H195.786V55.211h11.823v43.8q0,14.282,6.466,20.867t18.448,6.586A51.527,51.527,0,0,0,240.736,125.789Zm59.39-.992V110.911l-10-2.38V62.987a16.234,16.234,0,0,1,6.308-5.673,18.646,18.646,0,0,1,8.53-1.944q6.743,0,10.235,3.888t3.492,13.171v36.1l-10,2.38V124.8H352.97V110.911l-11.108-2.38V72.587q0-18.011-7.578-26.62t-20.511-8.609a27.79,27.79,0,0,0-13.608,3.293,28.859,28.859,0,0,0-10.037,9.244V1.018H254.661V14.983l12.378,2.38v91.168l-11.188,2.38V124.8h44.275Zm105.053,0V110.911l-11.108-2.38V38.945H358.524V52.91L370.9,55.29v53.241l-11.188,2.38V124.8h45.465ZM394.071,20.775V1.018H370.109V20.775h23.962ZM455.643,124.8V110.911l-9.363-2.38V63.463a17.507,17.507,0,0,1,6.15-5.991,17.259,17.259,0,0,1,8.688-2.1q6.744,0,10.156,3.61t3.412,12.259v37.292l-9.918,2.38V124.8h44.275V110.911l-11.108-2.38V71.159q0-17.455-7.221-25.629t-20-8.173a28.232,28.232,0,0,0-14.4,3.65,31.28,31.28,0,0,0-10.593,10.236l-1.031-12.3H410.813V52.91l12.3,2.38v53.241L412,110.911V124.8h43.64Zm103.943,0V110.911l-10-2.38V1.018H514.121V14.983l12.378,2.38v91.168l-11.188,2.38V124.8h44.275Zm53.32,0V110.911l-10.632-2.459-28.168-36.9L559.348,86.711l16.98,23.09,0.159,0.317-6.507,1.507V124.8h42.926Zm-14.679-69.11,11.109-2.777V38.945H564.664V52.751l8.808,1.27-0.159.238L536.02,88.377l11.109,12.934Zm73.236,69.11q15.473,0,27.216-7.3a49.851,49.851,0,0,0,18.289-20.114q6.546-12.813,6.546-29.239V66q0-16.582-6.625-29.4A49.953,49.953,0,0,0,698.441,16.53q-11.825-7.26-27.3-7.26h-50.7V23.234l12.457,2.7v82.361l-12.457,2.618V124.8h51.019ZM656.07,27.043h14.2q9.6,0,16.266,4.959a31.113,31.113,0,0,1,10.2,13.727,53.771,53.771,0,0,1,3.531,20.193v2.222a53.615,53.615,0,0,1-3.531,20.074,31.624,31.624,0,0,1-10.2,13.845q-6.664,5.04-16.266,5.039h-14.2V27.043ZM790.4,124.8q20.073,0,31.024-8.53t10.949-25.113a30.118,30.118,0,0,0-2.3-11.862,23.824,23.824,0,0,0-6.942-9.244,26.946,26.946,0,0,0-11.545-5.316,25.634,25.634,0,0,0,12.338-9.482,25.065,25.065,0,0,0,4.245-14.322q0-15.789-11.426-23.724T784.928,9.27H733.591V23.234l12.3,2.38v82.916l-12.3,2.38V124.8H790.4ZM769.059,73.7h23.089a20.828,20.828,0,0,1,9.72,1.984,12.441,12.441,0,0,1,5.594,5.872,22.538,22.538,0,0,1,1.825,9.6q0,7.855-4.84,11.862T790.4,107.023H769.059V73.7Zm0-46.576h15.869q10,0,15.036,3.809T805,42.754q0,7.3-5,11.108T785.721,57.67H769.059V27.122Zm188.366,96.286a64.6,64.6,0,0,0,16.822-7.5V88.3H957.029l-2.381,16.266a50.258,50.258,0,0,1-9.164,2.975,44.916,44.916,0,0,1-10.037,1.151,30.392,30.392,0,0,1-17.3-4.88,31.535,31.535,0,0,1-11.267-13.767q-3.969-8.886-3.967-21.027V64.97q0-12.14,3.769-20.987A30.648,30.648,0,0,1,917.514,30.3a29.167,29.167,0,0,1,16.9-4.84,40.307,40.307,0,0,1,7.816.714,32.562,32.562,0,0,1,6.7,2.063,30.2,30.2,0,0,1,5.713,3.253l2.381,17.535h17.218V21.092a54.108,54.108,0,0,0-18.369-10.156A70.961,70.961,0,0,0,933.86,7.6q-16.743,0-28.882,7.379a49.28,49.28,0,0,0-18.686,20.352q-6.546,12.973-6.546,29.794v3.888q0,17.615,6.784,30.508a48,48,0,0,0,19.241,19.916q12.456,7.022,29.279,7.022A76.956,76.956,0,0,0,957.425,123.408Zm72.285,1.389V110.911l-11.19-2.38V1.018H982.975V14.983l12.377,2.38v91.168l-11.187,2.38V124.8h45.545Zm68.55-3.888a36.58,36.58,0,0,0,13.89-15.433,50.992,50.992,0,0,0,4.84-22.732V81.077a50.741,50.741,0,0,0-4.84-22.693,36.9,36.9,0,0,0-13.89-15.433q-9.045-5.594-21.82-5.594-12.615,0-21.7,5.594a36.718,36.718,0,0,0-13.92,15.472,50.807,50.807,0,0,0-4.84,22.653v1.666a50.992,50.992,0,0,0,4.84,22.732,36.351,36.351,0,0,0,13.96,15.433q9.12,5.554,21.82,5.554Q1089.215,126.463,1098.26,120.909Zm-31.66-15.433a18.328,18.328,0,0,1-5.67-9.085,47.05,47.05,0,0,1-1.78-13.647V81.077a46.03,46.03,0,0,1,1.78-13.449,18.823,18.823,0,0,1,5.67-9.125,16.528,16.528,0,0,1,19.8,0,19.12,19.12,0,0,1,5.67,9.125,44.964,44.964,0,0,1,1.83,13.449v1.666a45.563,45.563,0,0,1-1.83,13.608,19.037,19.037,0,0,1-5.63,9.085,14.622,14.622,0,0,1-9.84,3.253A15.2,15.2,0,0,1,1066.6,105.476Zm110.93,17.734a27.978,27.978,0,0,0,10.16-9.283l1.58,10.87h30.63V110.911l-10.31-2.38V38.945h-33.41V52.91l10.24,2.38v45.386a17.328,17.328,0,0,1-6.51,5.752,19.829,19.829,0,0,1-9.12,2.024q-6.51,0-9.72-4.007t-3.22-13.211V38.945h-32.61V52.91l9.44,2.38V91.075q0,18.171,7.74,26.779t21.3,8.609A28.932,28.932,0,0,0,1177.53,123.21Zm97.16,0.159a28.186,28.186,0,0,0,9.64-9.046l1.74,10.474h31.19V110.911l-11.11-2.38V1.018H1270.6V14.983l12.38,2.38V48.149a27.767,27.767,0,0,0-9.2-7.974,26.086,26.086,0,0,0-12.38-2.817,27.622,27.622,0,0,0-17.46,5.673,35.912,35.912,0,0,0-11.23,15.829q-3.915,10.158-3.92,23.724v1.666q0,12.7,3.89,22.177a33.1,33.1,0,0,0,11.22,14.759,29.3,29.3,0,0,0,17.58,5.276A26.866,26.866,0,0,0,1274.69,123.369Zm-18.93-21.384q-3.795-6.466-3.8-17.734V82.585a52.955,52.955,0,0,1,1.7-14.2,20.2,20.2,0,0,1,5.4-9.561,13.322,13.322,0,0,1,9.48-3.452,15.637,15.637,0,0,1,8.41,2.261,17.834,17.834,0,0,1,6.03,6.387v36.42a17.3,17.3,0,0,1-6.11,5.951,16.936,16.936,0,0,1-8.49,2.063Q1259.575,108.452,1255.76,101.985Z"/>
</svg>
